<svg width="47" height="12" viewBox="0 0 47 12" fill="none" xmlns="http://www.w3.org/2000/svg">
<path fill-rule="evenodd" clip-rule="evenodd" d="M5.22396 0L0.032959 11.826H6.24796L7.01796 9.941H8.77896L9.54996 11.827H16.39V10.387L17 11.827H20.54L21.149 10.357V11.827H35.376L37.106 9.99L38.726 11.827L46.033 11.842L40.825 5.946L46.033 0H38.839L37.155 1.803L35.586 0H20.109L18.779 3.053L17.42 0H11.219V1.39L10.529 0H5.22596H5.22396ZM6.42696 1.68H9.45696L12.9 9.699V1.679H16.219L18.879 7.429L21.329 1.679H24.633V10.166H22.623L22.607 3.516L19.677 10.166H17.88L14.935 3.516V10.166H10.801L10.018 8.263H5.78296L5.00096 10.164H2.78696L6.42696 1.679V1.68ZM34.64 1.68H26.47V10.16H34.513L37.106 7.35L39.605 10.16H42.217L38.42 5.945L42.217 1.679H39.718L37.138 4.458L34.64 1.679V1.68ZM7.89996 3.115L6.50596 6.505H9.29396L7.90096 3.115H7.89996ZM28.487 4.985V3.435H33.585L35.809 5.912L33.486 8.404H28.487V6.712H32.944V4.986H28.487V4.985Z" fill="#7a7a7a"/>
</svg>
